<?xml version="1.0" encoding="UTF-8" standalone="no"?>
<!-- Created with Inkscape (http://www.inkscape.org/) -->

<svg
   width="214.04977"
   height="50"
   viewBox="0 0 56.634004 13.229167"
   version="1.1"
   id="svg5"
   inkscape:version="1.1 (c68e22c387, 2021-05-23)"
   sodipodi:docname="planopedia_blau.svg"
   xmlns:inkscape="http://www.inkscape.org/namespaces/inkscape"
   xmlns:sodipodi="http://sodipodi.sourceforge.net/DTD/sodipodi-0.dtd"
   xmlns="http://www.w3.org/2000/svg"
   xmlns:svg="http://www.w3.org/2000/svg">
  <sodipodi:namedview
     id="namedview7"
     pagecolor="#ffffff"
     bordercolor="#666666"
     borderopacity="1.0"
     inkscape:pageshadow="2"
     inkscape:pageopacity="0.0"
     inkscape:pagecheckerboard="0"
     inkscape:document-units="px"
     showgrid="false"
     inkscape:zoom="4.3789062"
     inkscape:cx="91.57538"
     inkscape:cy="-29.002677"
     inkscape:window-width="2256"
     inkscape:window-height="1410"
     inkscape:window-x="-11"
     inkscape:window-y="-11"
     inkscape:window-maximized="1"
     inkscape:current-layer="svgg" />
  <defs
     id="defs2">
    <rect
       x="136.10706"
       y="260.79572"
       width="311.49332"
       height="51.611061"
       id="rect16951" />
  </defs>
  <g
     inkscape:label="Layer 1"
     inkscape:groupmode="layer"
     id="layer1"
     style="display:none"
     transform="translate(-17.790004,-68.384554)" />
  <g
     inkscape:label="Layer 1 copy"
     inkscape:groupmode="layer"
     id="g12"
     style="display:inline"
     transform="translate(-17.790004,-68.384554)">
    <path
       style="fill:#3283f5;fill-opacity:0;stroke-width:0.456735"
       d="M 13.702052,48.465386 C 9.1382492,46.30418 6.4371189,41.962127 6.4098993,36.743294 c -0.014241,-2.730448 0.2144943,-3.46388 2.6106182,-8.370866 2.2874545,-4.684444 3.0266585,-6.677512 2.4766035,-6.677512 -0.08229,0 -1.414158,0.513826 -2.9597018,1.141837 -1.5455439,0.628011 -3.419295,1.141838 -4.1638914,1.141838 -1.8413195,0 -3.65991439,-1.682164 -3.97754362,-3.679148 -0.43180513,-2.714826 1.13279212,-4.048525 7.96643472,-6.790775 3.2194421,-1.291919 6.9145481,-3.063474 8.2113461,-3.9367886 2.327546,-1.5674609 5.218125,-4.9691409 6.678294,-7.8591229 0.412494,-0.81641394 0.844227,-1.48438897 0.959406,-1.48438897 0.115178,0 4.6201,2.36278067 10.010936,5.25062357 5.390836,2.8878431 10.315252,5.4846959 10.943147,5.7707839 1.046143,0.476656 1.375645,0.308382 3.939747,-2.0119946 3.174363,-2.8726356 4.475113,-3.3759554 6.293923,-2.4354109 2.537145,1.312008 3.002284,4.2198575 0.995943,6.2261975 -1.009261,1.009261 -4.29177,1.207529 -7.524509,0.454489 -1.31584,-0.306514 -1.970762,-0.271522 -2.341041,0.12508 -0.282751,0.302858 -4.057615,7.230401 -8.38858,15.394541 -4.650285,8.766077 -8.553999,15.567529 -9.534072,16.611239 -3.695577,3.93554 -10.048981,5.151017 -14.904907,2.85147 z M 27.57635,27.145104 c 3.035665,-0.651034 4.623472,-2.149994 4.623472,-4.364762 0,-2.130105 -1.08048,-3.369102 -2.938061,-3.369102 -0.861077,0 -1.736223,-0.361987 -2.208417,-0.91347 -1.85597,-2.167616 -5.815164,-0.390724 -5.815164,2.609854 0,2.28575 2.380462,6.524847 3.664024,6.524847 0.220896,0 1.424262,-0.219315 2.674146,-0.487367 z M 56.028266,12.261058 c 1.810096,-1.638115 0.139382,-5.1816645 -2.443058,-5.1816645 -0.997454,0 -5.399659,3.9348825 -5.399659,4.8264525 0,1.222484 6.556272,1.51943 7.842717,0.355212 z"
       id="path15859"
       transform="matrix(0.26458334,0,0,0.26458334,17.790004,68.384554)" />
    <path
       style="fill:#3283f5;fill-opacity:0;stroke-width:0.456735"
       d="M 13.702052,48.465386 C 9.1382492,46.30418 6.4371189,41.962127 6.4098993,36.743294 c -0.014241,-2.730448 0.2144943,-3.46388 2.6106182,-8.370866 2.2874545,-4.684444 3.0266585,-6.677512 2.4766035,-6.677512 -0.08229,0 -1.414158,0.513826 -2.9597018,1.141837 -1.5455439,0.628011 -3.419295,1.141838 -4.1638914,1.141838 -1.8413195,0 -3.65991439,-1.682164 -3.97754362,-3.679148 -0.43180513,-2.714826 1.13279212,-4.048525 7.96643472,-6.790775 3.2194421,-1.291919 6.9145481,-3.063474 8.2113461,-3.9367886 2.327546,-1.5674609 5.218125,-4.9691409 6.678294,-7.8591229 0.412494,-0.81641394 0.844227,-1.48438897 0.959406,-1.48438897 0.115178,0 4.6201,2.36278067 10.010936,5.25062357 5.390836,2.8878431 10.315252,5.4846959 10.943147,5.7707839 1.046143,0.476656 1.375645,0.308382 3.939747,-2.0119946 3.174363,-2.8726356 4.475113,-3.3759554 6.293923,-2.4354109 2.537145,1.312008 3.002284,4.2198575 0.995943,6.2261975 -1.009261,1.009261 -4.29177,1.207529 -7.524509,0.454489 -1.31584,-0.306514 -1.970762,-0.271522 -2.341041,0.12508 -0.282751,0.302858 -4.057615,7.230401 -8.38858,15.394541 -4.650285,8.766077 -8.553999,15.567529 -9.534072,16.611239 -3.695577,3.93554 -10.048981,5.151017 -14.904907,2.85147 z M 27.57635,27.145104 c 3.035665,-0.651034 4.623472,-2.149994 4.623472,-4.364762 0,-2.130105 -1.08048,-3.369102 -2.938061,-3.369102 -0.861077,0 -1.736223,-0.361987 -2.208417,-0.91347 -1.85597,-2.167616 -5.815164,-0.390724 -5.815164,2.609854 0,2.28575 2.380462,6.524847 3.664024,6.524847 0.220896,0 1.424262,-0.219315 2.674146,-0.487367 z M 56.028266,12.261058 c 1.810096,-1.638115 0.139382,-5.1816645 -2.443058,-5.1816645 -0.997454,0 -5.399659,3.9348825 -5.399659,4.8264525 0,1.222484 6.556272,1.51943 7.842717,0.355212 z"
       id="path15898"
       transform="matrix(0.26458334,0,0,0.26458334,17.790004,68.384554)" />
    <path
       style="fill:#3283f5;fill-opacity:0;stroke-width:0.456735"
       d="M 13.702052,48.465386 C 9.1382492,46.30418 6.4371189,41.962127 6.4098993,36.743294 c -0.014241,-2.730448 0.2144943,-3.46388 2.6106182,-8.370866 2.2874545,-4.684444 3.0266585,-6.677512 2.4766035,-6.677512 -0.08229,0 -1.414158,0.513826 -2.9597018,1.141837 -1.5455439,0.628011 -3.419295,1.141838 -4.1638914,1.141838 -1.8413195,0 -3.65991439,-1.682164 -3.97754362,-3.679148 -0.43180513,-2.714826 1.13279212,-4.048525 7.96643472,-6.790775 3.2194421,-1.291919 6.9145481,-3.063474 8.2113461,-3.9367886 2.327546,-1.5674609 5.218125,-4.9691409 6.678294,-7.8591229 0.412494,-0.81641394 0.844227,-1.48438897 0.959406,-1.48438897 0.115178,0 4.6201,2.36278067 10.010936,5.25062357 5.390836,2.8878431 10.315252,5.4846959 10.943147,5.7707839 1.046143,0.476656 1.375645,0.308382 3.939747,-2.0119946 3.174363,-2.8726356 4.475113,-3.3759554 6.293923,-2.4354109 2.537145,1.312008 3.002284,4.2198575 0.995943,6.2261975 -1.009261,1.009261 -4.29177,1.207529 -7.524509,0.454489 -1.31584,-0.306514 -1.970762,-0.271522 -2.341041,0.12508 -0.282751,0.302858 -4.057615,7.230401 -8.38858,15.394541 -4.650285,8.766077 -8.553999,15.567529 -9.534072,16.611239 -3.695577,3.93554 -10.048981,5.151017 -14.904907,2.85147 z M 27.57635,27.145104 c 3.035665,-0.651034 4.623472,-2.149994 4.623472,-4.364762 0,-2.130105 -1.08048,-3.369102 -2.938061,-3.369102 -0.861077,0 -1.736223,-0.361987 -2.208417,-0.91347 -1.85597,-2.167616 -5.815164,-0.390724 -5.815164,2.609854 0,2.28575 2.380462,6.524847 3.664024,6.524847 0.220896,0 1.424262,-0.219315 2.674146,-0.487367 z M 56.028266,12.261058 c 1.810096,-1.638115 0.139382,-5.1816645 -2.443058,-5.1816645 -0.997454,0 -5.399659,3.9348825 -5.399659,4.8264525 0,1.222484 6.556272,1.51943 7.842717,0.355212 z"
       id="path15937"
       transform="matrix(0.26458334,0,0,0.26458334,17.790004,68.384554)" />
    <path
       style="fill:#3283f5;fill-opacity:0;stroke-width:0.456735"
       d="M 13.702052,48.465386 C 9.1382492,46.30418 6.4371189,41.962127 6.4098993,36.743294 c -0.014241,-2.730448 0.2144943,-3.46388 2.6106182,-8.370866 2.2874545,-4.684444 3.0266585,-6.677512 2.4766035,-6.677512 -0.08229,0 -1.414158,0.513826 -2.9597018,1.141837 -1.5455439,0.628011 -3.419295,1.141838 -4.1638914,1.141838 -1.8413195,0 -3.65991439,-1.682164 -3.97754362,-3.679148 -0.43180513,-2.714826 1.13279212,-4.048525 7.96643472,-6.790775 3.2194421,-1.291919 6.9145481,-3.063474 8.2113461,-3.9367886 2.327546,-1.5674609 5.218125,-4.9691409 6.678294,-7.8591229 0.412494,-0.81641394 0.844227,-1.48438897 0.959406,-1.48438897 0.115178,0 4.6201,2.36278067 10.010936,5.25062357 5.390836,2.8878431 10.315252,5.4846959 10.943147,5.7707839 1.046143,0.476656 1.375645,0.308382 3.939747,-2.0119946 3.174363,-2.8726356 4.475113,-3.3759554 6.293923,-2.4354109 2.537145,1.312008 3.002284,4.2198575 0.995943,6.2261975 -1.009261,1.009261 -4.29177,1.207529 -7.524509,0.454489 -1.31584,-0.306514 -1.970762,-0.271522 -2.341041,0.12508 -0.282751,0.302858 -4.057615,7.230401 -8.38858,15.394541 -4.650285,8.766077 -8.553999,15.567529 -9.534072,16.611239 -3.695577,3.93554 -10.048981,5.151017 -14.904907,2.85147 z M 27.57635,27.145104 c 3.035665,-0.651034 4.623472,-2.149994 4.623472,-4.364762 0,-2.130105 -1.08048,-3.369102 -2.938061,-3.369102 -0.861077,0 -1.736223,-0.361987 -2.208417,-0.91347 -1.85597,-2.167616 -5.815164,-0.390724 -5.815164,2.609854 0,2.28575 2.380462,6.524847 3.664024,6.524847 0.220896,0 1.424262,-0.219315 2.674146,-0.487367 z M 56.028266,12.261058 c 1.810096,-1.638115 0.139382,-5.1816645 -2.443058,-5.1816645 -0.997454,0 -5.399659,3.9348825 -5.399659,4.8264525 0,1.222484 6.556272,1.51943 7.842717,0.355212 z"
       id="path16939"
       transform="matrix(0.26458334,0,0,0.26458334,17.790004,68.384554)" />
    <path
       style="fill:#3283f5;fill-opacity:0;stroke-width:0.456735"
       d="M 13.702052,48.465386 C 9.1382492,46.30418 6.4371189,41.962127 6.4098993,36.743294 c -0.014241,-2.730448 0.2144943,-3.46388 2.6106182,-8.370866 2.2874545,-4.684444 3.0266585,-6.677512 2.4766035,-6.677512 -0.08229,0 -1.414158,0.513826 -2.9597018,1.141837 -1.5455439,0.628011 -3.419295,1.141838 -4.1638914,1.141838 -1.8413195,0 -3.65991439,-1.682164 -3.97754362,-3.679148 -0.43180513,-2.714826 1.13279212,-4.048525 7.96643472,-6.790775 3.2194421,-1.291919 6.9145481,-3.063474 8.2113461,-3.9367886 2.327546,-1.5674609 5.218125,-4.9691409 6.678294,-7.8591229 0.412494,-0.81641394 0.844227,-1.48438897 0.959406,-1.48438897 0.115178,0 4.6201,2.36278067 10.010936,5.25062357 5.390836,2.8878431 10.315252,5.4846959 10.943147,5.7707839 1.046143,0.476656 1.375645,0.308382 3.939747,-2.0119946 3.174363,-2.8726356 4.475113,-3.3759554 6.293923,-2.4354109 2.537145,1.312008 3.002284,4.2198575 0.995943,6.2261975 -1.009261,1.009261 -4.29177,1.207529 -7.524509,0.454489 -1.31584,-0.306514 -1.970762,-0.271522 -2.341041,0.12508 -0.282751,0.302858 -4.057615,7.230401 -8.38858,15.394541 -4.650285,8.766077 -8.553999,15.567529 -9.534072,16.611239 -3.695577,3.93554 -10.048981,5.151017 -14.904907,2.85147 z M 27.57635,27.145104 c 3.035665,-0.651034 4.623472,-2.149994 4.623472,-4.364762 0,-2.130105 -1.08048,-3.369102 -2.938061,-3.369102 -0.861077,0 -1.736223,-0.361987 -2.208417,-0.91347 -1.85597,-2.167616 -5.815164,-0.390724 -5.815164,2.609854 0,2.28575 2.380462,6.524847 3.664024,6.524847 0.220896,0 1.424262,-0.219315 2.674146,-0.487367 z M 56.028266,12.261058 c 1.810096,-1.638115 0.139382,-5.1816645 -2.443058,-5.1816645 -0.997454,0 -5.399659,3.9348825 -5.399659,4.8264525 0,1.222484 6.556272,1.51943 7.842717,0.355212 z"
       id="path17047"
       transform="matrix(0.26458334,0,0,0.26458334,17.790004,68.384554)" />
    <path
       style="fill:#3283f5;fill-opacity:0;stroke-width:0.456735"
       d="M 13.702052,48.465386 C 9.1382492,46.30418 6.4371189,41.962127 6.4098993,36.743294 c -0.014241,-2.730448 0.2144943,-3.46388 2.6106182,-8.370866 2.2874545,-4.684444 3.0266585,-6.677512 2.4766035,-6.677512 -0.08229,0 -1.414158,0.513826 -2.9597018,1.141837 -1.5455439,0.628011 -3.419295,1.141838 -4.1638914,1.141838 -1.8413195,0 -3.65991439,-1.682164 -3.97754362,-3.679148 -0.43180513,-2.714826 1.13279212,-4.048525 7.96643472,-6.790775 3.2194421,-1.291919 6.9145481,-3.063474 8.2113461,-3.9367886 2.327546,-1.5674609 5.218125,-4.9691409 6.678294,-7.8591229 0.412494,-0.81641394 0.844227,-1.48438897 0.959406,-1.48438897 0.115178,0 4.6201,2.36278067 10.010936,5.25062357 5.390836,2.8878431 10.315252,5.4846959 10.943147,5.7707839 1.046143,0.476656 1.375645,0.308382 3.939747,-2.0119946 3.174363,-2.8726356 4.475113,-3.3759554 6.293923,-2.4354109 2.537145,1.312008 3.002284,4.2198575 0.995943,6.2261975 -1.009261,1.009261 -4.29177,1.207529 -7.524509,0.454489 -1.31584,-0.306514 -1.970762,-0.271522 -2.341041,0.12508 -0.282751,0.302858 -4.057615,7.230401 -8.38858,15.394541 -4.650285,8.766077 -8.553999,15.567529 -9.534072,16.611239 -3.695577,3.93554 -10.048981,5.151017 -14.904907,2.85147 z M 27.57635,27.145104 c 3.035665,-0.651034 4.623472,-2.149994 4.623472,-4.364762 0,-2.130105 -1.08048,-3.369102 -2.938061,-3.369102 -0.861077,0 -1.736223,-0.361987 -2.208417,-0.91347 -1.85597,-2.167616 -5.815164,-0.390724 -5.815164,2.609854 0,2.28575 2.380462,6.524847 3.664024,6.524847 0.220896,0 1.424262,-0.219315 2.674146,-0.487367 z M 56.028266,12.261058 c 1.810096,-1.638115 0.139382,-5.1816645 -2.443058,-5.1816645 -0.997454,0 -5.399659,3.9348825 -5.399659,4.8264525 0,1.222484 6.556272,1.51943 7.842717,0.355212 z"
       id="path17086"
       transform="matrix(0.26458334,0,0,0.26458334,17.790004,68.384554)" />
  </g>
  <g
     id="svgg"
     transform="matrix(0.26458334,0,0,0.26458334,-13.547229,-59.328896)">
    <path
       id="path0"
       d="m 75.200303,224.34441 c -0.342205,0.21446 -0.659468,0.61355 -0.893399,1.12392 -0.128114,0.27948 -0.312539,0.62376 -0.409853,0.76529 -0.0975,0.14153 -0.264165,0.46107 -0.370738,0.71011 -0.955189,2.23293 -4.484003,6.09941 -6.476012,7.0958 -0.207477,0.10373 -0.520582,0.28589 -0.696126,0.40475 -0.175543,0.11886 -0.462572,0.28798 -0.638115,0.37603 -0.175354,0.088 -0.462572,0.24754 -0.638116,0.35449 -0.175353,0.10694 -0.592953,0.29666 -0.927978,0.42175 -0.335025,0.1251 -0.739587,0.28533 -0.899257,0.35619 -0.159482,0.0708 -0.517748,0.20351 -0.796275,0.29496 -0.278525,0.0915 -0.710486,0.26909 -0.959912,0.39436 -0.249616,0.12547 -0.648131,0.28647 -0.885841,0.3579 -0.237711,0.0713 -0.636415,0.23146 -0.88603,0.35599 -0.249616,0.12452 -0.641139,0.29364 -0.870158,0.37585 -0.229018,0.0824 -0.612039,0.24696 -0.85145,0.36619 -0.239223,0.11905 -0.695937,0.30215 -1.015089,0.40684 -0.318964,0.10487 -0.786071,0.29345 -1.037953,0.41911 -0.252072,0.12585 -0.708786,0.31707 -1.015279,0.42478 -1.314967,0.46295 -2.136184,1.0149 -2.714966,1.82553 -0.102038,0.14304 -0.264921,0.36431 -0.361857,0.49206 -0.660224,0.86883 -0.848616,2.46194 -0.435173,3.6796 0.968983,2.85404 3.896339,3.99346 6.806312,2.64902 0.306492,-0.14154 0.74979,-0.31066 0.985045,-0.37585 0.235443,-0.065 0.58086,-0.20936 0.767741,-0.32066 0.186881,-0.1113 0.529464,-0.27059 0.761128,-0.35411 0.231853,-0.0835 0.653044,-0.25584 0.935915,-0.38321 1.292859,-0.58143 1.437413,-0.14078 0.520394,1.58537 -0.63717,1.1997 -0.824808,1.56364 -1.010932,1.95988 -0.24508,0.52229 -0.633391,1.21955 -0.926656,1.66398 -0.151168,0.2294 -0.307437,0.51643 -0.347119,0.63811 -0.03968,0.12169 -0.378674,0.80951 -0.75338,1.5285 -0.374518,0.71899 -0.747145,1.51602 -0.827642,1.77111 -0.08069,0.25529 -0.237899,0.68498 -0.349574,0.9552 -0.111486,0.27002 -0.245647,0.69989 -0.297989,0.955 -0.05234,0.25528 -0.173087,0.7734 -0.268322,1.15132 -0.301012,1.19441 -0.361857,2.85593 -0.141719,3.8663 0.374706,1.72028 0.580672,2.51202 0.753002,2.89693 0.108085,0.24111 0.265677,0.64738 0.349953,0.90266 0.08447,0.25529 0.252639,0.62073 0.373573,0.81215 0.120933,0.19141 0.305169,0.50452 0.409096,0.69612 0.634903,1.16871 1.592737,2.31891 2.601213,3.12368 0.213335,0.17026 0.42667,0.35638 0.47391,0.41345 0.402672,0.48562 2.60915,1.65963 3.829448,2.03755 0.462572,0.14323 0.979376,0.31141 1.148305,0.37376 1.067998,0.39473 4.662381,0.4673 5.970735,0.12056 3.81641,-1.01094 5.860761,-2.35274 8.098416,-5.31505 0.520205,-0.68857 0.786071,-1.13603 1.292481,-2.1753 0.178756,-0.36677 0.380942,-0.74393 0.449156,-0.83784 0.116589,-0.16043 0.48128,-0.86015 1.150762,-2.20742 0.158537,-0.31916 0.326333,-0.62262 0.372817,-0.6744 0.112053,-0.12491 0.701228,-1.20367 1.073099,-1.96499 0.163639,-0.33502 0.350709,-0.68441 0.415711,-0.77643 0.065,-0.092 0.27418,-0.47051 0.464651,-0.84106 0.963314,-1.87372 1.146982,-2.22632 1.439113,-2.76202 0.174032,-0.31915 0.386044,-0.6846 0.471265,-0.81215 0.08503,-0.12754 0.236954,-0.42591 0.337291,-0.66268 0.100338,-0.23695 0.245647,-0.53079 0.322932,-0.65303 0.07729,-0.12246 0.265299,-0.47675 0.418167,-0.78759 0.152679,-0.31084 0.47561,-0.93043 0.717667,-1.37714 0.242057,-0.4467 0.583507,-1.0799 0.75886,-1.40736 0.175166,-0.32729 0.3543,-0.63774 0.39776,-0.6899 0.04346,-0.0524 0.245647,-0.42402 0.449156,-0.82613 0.740342,-1.46216 0.910405,-1.78547 1.148872,-2.18266 0.133406,-0.2226 0.288163,-0.5221 0.343907,-0.6657 0.05555,-0.14362 0.205398,-0.43064 0.333134,-0.63812 0.127548,-0.20729 0.313105,-0.53362 0.412309,-0.72504 0.09901,-0.19141 0.249804,-0.45029 0.335025,-0.57519 0.08503,-0.12472 0.238279,-0.43801 0.340504,-0.69594 0.10204,-0.25811 0.2893,-0.62375 0.415897,-0.81253 0.126606,-0.18895 0.327845,-0.55591 0.447271,-0.81535 0.11923,-0.25963 0.282305,-0.57557 0.362236,-0.70217 0.07997,-0.12661 0.242243,-0.45577 0.360719,-0.73165 0.118476,-0.27588 0.28061,-0.58843 0.360346,-0.69462 0.07952,-0.10638 0.223347,-0.34995 0.319342,-0.54137 0.315375,-0.62791 0.882249,-1.54607 1.023588,-1.65717 0.298557,-0.23487 1.183264,-0.1472 2.679073,0.26549 1.85917,0.51321 4.99816,0.66495 5.90592,0.28571 0.72182,-0.30159 1.68155,-1.17269 1.94288,-1.76338 0.0631,-0.14247 0.18858,-0.37924 0.2789,-0.52605 0.37206,-0.60449 0.47523,-2.19458 0.1848,-2.84554 -0.50263,-1.12658 -1.23863,-2.02451 -1.95478,-2.38467 -1.73805,-0.87431 -3.55716,-0.63472 -5.00723,0.65928 -0.26228,0.23393 -0.74526,0.66022 -1.07329,0.94706 -0.87205,0.76302 -2.039064,1.91038 -2.437387,2.39657 -0.740724,0.90456 -1.405856,0.9911 -2.405073,0.3133 -0.184988,-0.12547 -0.498286,-0.3097 -0.695939,-0.40948 -0.197839,-0.0998 -0.5168,-0.28287 -0.709163,-0.40721 -0.192363,-0.12433 -0.523983,-0.29571 -0.73694,-0.38113 -0.213146,-0.0852 -0.502821,-0.23449 -0.643973,-0.33161 -0.141152,-0.0969 -0.456903,-0.26833 -0.701794,-0.38076 -0.244703,-0.11224 -0.588608,-0.29213 -0.764152,-0.39946 -0.175543,-0.10733 -0.538723,-0.28797 -0.807234,-0.40116 -0.268511,-0.11319 -0.607882,-0.29308 -0.754136,-0.39965 -0.146255,-0.10676 -0.430639,-0.27664 -0.63188,-0.37754 -0.201241,-0.10109 -0.494507,-0.27607 -0.651531,-0.38888 -0.157026,-0.11281 -0.477689,-0.27909 -0.712566,-0.36942 -0.234876,-0.0905 -0.594277,-0.2651 -0.798731,-0.38811 -0.204265,-0.12302 -0.515103,-0.28817 -0.690646,-0.36716 -0.175354,-0.0788 -0.51926,-0.26359 -0.763962,-0.41079 -0.244702,-0.14701 -0.597111,-0.32823 -0.783047,-0.40286 -0.369794,-0.14833 -1.297584,-0.64473 -1.846321,-0.98807 -0.191416,-0.11961 -0.582939,-0.33352 -0.870158,-0.47524 -1.382236,-0.68195 -1.99163,-0.99845 -2.204398,-1.1449 -0.127925,-0.0879 -0.467107,-0.27588 -0.754136,-0.41797 -0.667216,-0.33049 -1.802294,-0.93932 -1.898286,-1.0183 -0.191226,-0.15741 -2.051152,-1.0578 -2.184746,-1.05761 -0.08314,1.9e-4 -0.229585,0.0494 -0.325388,0.10922 m 30.366507,7.37753 c 2.14091,0.34731 3.04356,3.12275 1.52226,4.68034 -0.76075,0.77888 -1.35654,0.91078 -3.38558,0.7496 -3.00975,-0.23923 -4.439411,-0.69727 -4.19471,-1.34388 0.05423,-0.14361 2.09008,-2.2216 2.73726,-2.79395 0.29326,-0.25944 1.60558,-1.17551 1.6944,-1.18251 0.0174,-0.002 0.16212,-0.039 0.3216,-0.0832 0.35431,-0.0984 0.80478,-0.10752 1.30477,-0.0265 m -28.851431,10.2928 c 0.841246,0.28249 1.072721,0.43668 1.55589,1.03758 0.605047,0.75206 0.766419,0.82991 1.518098,0.73033 1.37279,-0.18159 2.359912,0.26851 3.140504,1.43212 0.968416,1.44384 0.382075,3.67053 -1.256013,4.76933 -0.178567,0.1198 -0.421568,0.28457 -0.540045,0.36601 -0.327089,0.22524 -2.050208,0.76983 -2.975164,0.94027 -2.034902,0.37508 -2.655634,0.31026 -3.041677,-0.31689 -0.100337,-0.16307 -0.287785,-0.42969 -0.416655,-0.59277 -0.12887,-0.16306 -0.295343,-0.41703 -0.370172,-0.56441 -0.07464,-0.14739 -0.243001,-0.40362 -0.37395,-0.56934 -0.131138,-0.16571 -0.327844,-0.49772 -0.437062,-0.7377 -0.109408,-0.23997 -0.29062,-0.58577 -0.402672,-0.76831 -0.267,-0.43498 -0.555919,-1.59009 -0.554218,-2.21573 0.0062,-2.38995 2.133917,-4.18829 4.153136,-3.51049 m -1.393764,1.13395 c -0.906626,0.22732 -1.731244,1.81061 -1.482575,2.84667 0.135107,0.56347 0.629991,1.78794 0.859199,2.12598 0.123768,0.18254 0.291186,0.46238 0.372249,0.62186 0.146633,0.2893 0.717479,0.97844 0.978431,1.18119 0.339749,0.26435 0.718046,0.28816 1.616735,0.10223 0.239223,-0.0494 0.705385,-0.14172 1.035686,-0.20502 2.156214,-0.41288 3.410336,-1.5198 3.390685,-2.99274 -0.02173,-1.63941 -1.352948,-2.20478 -3.113293,-1.32253 -0.784748,0.39323 -1.081981,0.21334 -1.408502,-0.85277 -0.40305,-1.31686 -1.110891,-1.79039 -2.248615,-1.50487"
       stroke="none"
       fill="#191919"
       fill-rule="evenodd"
       style="stroke-width:0.18896;fill:#2f80ed;fill-opacity:1" />
    <text
       xml:space="preserve"
       transform="translate(-28.824268,-36.509787)"
       id="text16949"
       style="font-style:normal;font-weight:normal;font-size:40px;line-height:1.25;font-family:sans-serif;white-space:pre;shape-inside:url(#rect16951);fill:#2f80ed;fill-opacity:1;stroke:none"><tspan
         x="136.10742"
         y="297.28813"
         id="tspan17832"><tspan
           style="font-family:Yellowtail;-inkscape-font-specification:'Yellowtail, Normal'"
           id="tspan17830">Planopedia</tspan></tspan></text>
  </g>
  <path
     style="fill:#3283f5;fill-opacity:0;stroke-width:0.456735"
     d="M 13.702052,48.465386 C 9.1382492,46.30418 6.4371189,41.962127 6.4098993,36.743294 c -0.014241,-2.730448 0.2144943,-3.46388 2.6106182,-8.370866 2.2874545,-4.684444 3.0266585,-6.677512 2.4766035,-6.677512 -0.08229,0 -1.414158,0.513826 -2.9597018,1.141837 -1.5455439,0.628011 -3.419295,1.141838 -4.1638914,1.141838 -1.8413195,0 -3.65991439,-1.682164 -3.97754362,-3.679148 -0.43180513,-2.714826 1.13279212,-4.048525 7.96643472,-6.790775 3.2194421,-1.291919 6.9145481,-3.063474 8.2113461,-3.9367886 2.327546,-1.5674609 5.218125,-4.9691409 6.678294,-7.8591229 0.412494,-0.81641394 0.844227,-1.48438897 0.959406,-1.48438897 0.115178,0 4.6201,2.36278067 10.010936,5.25062357 5.390836,2.8878431 10.315252,5.4846959 10.943147,5.7707839 1.046143,0.476656 1.375645,0.308382 3.939747,-2.0119946 3.174363,-2.8726356 4.475113,-3.3759554 6.293923,-2.4354109 2.537145,1.312008 3.002284,4.2198575 0.995943,6.2261975 -1.009261,1.009261 -4.29177,1.207529 -7.524509,0.454489 -1.31584,-0.306514 -1.970762,-0.271522 -2.341041,0.12508 -0.282751,0.302858 -4.057615,7.230401 -8.38858,15.394541 -4.650285,8.766077 -8.553999,15.567529 -9.534072,16.611239 -3.695577,3.93554 -10.048981,5.151017 -14.904907,2.85147 z M 27.57635,27.145104 c 3.035665,-0.651034 4.623472,-2.149994 4.623472,-4.364762 0,-2.130105 -1.08048,-3.369102 -2.938061,-3.369102 -0.861077,0 -1.736223,-0.361987 -2.208417,-0.91347 -1.85597,-2.167616 -5.815164,-0.390724 -5.815164,2.609854 0,2.28575 2.380462,6.524847 3.664024,6.524847 0.220896,0 1.424262,-0.219315 2.674146,-0.487367 z M 56.028266,12.261058 c 1.810096,-1.638115 0.139382,-5.1816645 -2.443058,-5.1816645 -0.997454,0 -5.399659,3.9348825 -5.399659,4.8264525 0,1.222484 6.556272,1.51943 7.842717,0.355212 z"
     id="path17286"
     transform="scale(0.26458334)" />
  <path
     style="fill:#3283f5;fill-opacity:0;stroke-width:0.228368"
     d="M 16.106999,49.532609 C 12.50096,48.56352 9.4219926,46.182718 7.8182175,43.123333 6.8761192,41.326174 6.0607181,38.460015 6.0552457,36.926438 c -0.00888,-2.489799 1.2702766,-5.96432 4.0506373,-11.002542 1.267894,-2.297519 1.794617,-3.594612 1.556425,-3.832804 -0.19147,-0.19147 -1.410779,0.184073 -3.8365626,1.181649 C 4.1855224,24.76974 1.8027035,24.178442 0.54713743,21.466548 0.01228533,20.311322 0.01001079,19.205895 0.54008508,18.039076 1.2473054,16.482318 2.205002,15.880911 7.1944403,13.860328 14.197438,11.024309 16.251254,9.9476114 18.290207,8.0434543 20.11634,6.3380481 21.442547,4.6007567 22.791214,2.1472707 23.246712,1.3186353 23.775942,0.51073483 23.967282,0.35193627 24.317397,0.06136792 28.344786,2.0992452 41.8512,9.401277 c 2.168204,1.172206 4.097092,2.131283 4.286418,2.131283 0.189323,0 1.422574,-1.016584 2.740556,-2.2590759 2.649123,-2.4973922 3.467515,-2.9935471 4.936893,-2.9930221 1.404188,5.024e-4 2.469169,0.6161498 3.357245,1.9407691 0.674947,1.0067295 0.750747,1.2683688 0.640591,2.2111889 -0.176206,1.508171 -1.038807,2.763798 -2.327159,3.387478 -0.932522,0.451427 -1.280002,0.496657 -2.811896,0.366014 -0.961338,-0.08199 -2.364481,-0.297807 -3.118094,-0.479603 -0.753612,-0.181796 -1.702292,-0.3342 -2.108174,-0.338673 -0.918168,-0.01012 -0.428722,-0.846644 -9.014425,15.406673 -7.599389,14.386152 -8.214718,15.453798 -9.887214,17.15509 -3.249507,3.305456 -8.205211,4.740983 -12.438942,3.60321 z M 28.35061,26.810618 c 1.971554,-0.603608 2.980066,-1.360016 3.559359,-2.669603 1.069086,-2.41685 -0.287083,-4.668291 -2.811976,-4.668291 -1.009262,0 -1.259016,-0.09857 -1.917039,-0.756592 -1.109843,-1.109843 -2.3392,-1.419676 -3.648696,-0.919575 -1.380561,0.527241 -2.016773,1.45523 -2.136976,3.117029 -0.119604,1.653499 0.172994,2.523315 1.567306,4.659186 l 1.120965,1.717148 h 1.350762 c 0.742918,0 2.055251,-0.215686 2.916295,-0.479302 z M 55.863768,12.295156 c 0.889147,-0.889145 1.096902,-2.189333 0.538023,-3.3670833 -0.784822,-1.6538892 -2.96509,-2.0345444 -4.652395,-0.8122663 -1.106731,0.8017119 -3.678031,3.3598346 -3.678031,3.6591826 0,0.665399 3.226777,1.372734 5.777256,1.266421 1.130634,-0.04713 1.425052,-0.156158 2.015147,-0.746254 z"
     id="path17399"
     transform="scale(0.26458334)" />
  <path
     style="fill:#3283f5;fill-opacity:0;stroke-width:0.228368"
     d="M 16.106999,49.532609 C 12.50096,48.56352 9.4219926,46.182718 7.8182175,43.123333 6.8761192,41.326174 6.0607181,38.460015 6.0552457,36.926438 c -0.00888,-2.489799 1.2702766,-5.96432 4.0506373,-11.002542 1.267894,-2.297519 1.794617,-3.594612 1.556425,-3.832804 -0.19147,-0.19147 -1.410779,0.184073 -3.8365626,1.181649 C 4.1855224,24.76974 1.8027035,24.178442 0.54713743,21.466548 0.01228533,20.311322 0.01001079,19.205895 0.54008508,18.039076 1.2473054,16.482318 2.205002,15.880911 7.1944403,13.860328 14.197438,11.024309 16.251254,9.9476114 18.290207,8.0434543 20.11634,6.3380481 21.442547,4.6007567 22.791214,2.1472707 23.246712,1.3186353 23.775942,0.51073483 23.967282,0.35193627 24.317397,0.06136792 28.344786,2.0992452 41.8512,9.401277 c 2.168204,1.172206 4.097092,2.131283 4.286418,2.131283 0.189323,0 1.422574,-1.016584 2.740556,-2.2590759 2.649123,-2.4973922 3.467515,-2.9935471 4.936893,-2.9930221 1.404188,5.024e-4 2.469169,0.6161498 3.357245,1.9407691 0.674947,1.0067295 0.750747,1.2683688 0.640591,2.2111889 -0.176206,1.508171 -1.038807,2.763798 -2.327159,3.387478 -0.932522,0.451427 -1.280002,0.496657 -2.811896,0.366014 -0.961338,-0.08199 -2.364481,-0.297807 -3.118094,-0.479603 -0.753612,-0.181796 -1.702292,-0.3342 -2.108174,-0.338673 -0.918168,-0.01012 -0.428722,-0.846644 -9.014425,15.406673 -7.599389,14.386152 -8.214718,15.453798 -9.887214,17.15509 -3.249507,3.305456 -8.205211,4.740983 -12.438942,3.60321 z M 28.35061,26.810618 c 1.971554,-0.603608 2.980066,-1.360016 3.559359,-2.669603 1.069086,-2.41685 -0.287083,-4.668291 -2.811976,-4.668291 -1.009262,0 -1.259016,-0.09857 -1.917039,-0.756592 -1.109843,-1.109843 -2.3392,-1.419676 -3.648696,-0.919575 -1.380561,0.527241 -2.016773,1.45523 -2.136976,3.117029 -0.119604,1.653499 0.172994,2.523315 1.567306,4.659186 l 1.120965,1.717148 h 1.350762 c 0.742918,0 2.055251,-0.215686 2.916295,-0.479302 z M 55.863768,12.295156 c 0.889147,-0.889145 1.096902,-2.189333 0.538023,-3.3670833 -0.784822,-1.6538892 -2.96509,-2.0345444 -4.652395,-0.8122663 -1.106731,0.8017119 -3.678031,3.3598346 -3.678031,3.6591826 0,0.665399 3.226777,1.372734 5.777256,1.266421 1.130634,-0.04713 1.425052,-0.156158 2.015147,-0.746254 z"
     id="path17438"
     transform="scale(0.26458334)" />
  <path
     style="fill:#3283f5;fill-opacity:0;stroke-width:0.228368"
     d="M 16.106999,49.532609 C 12.50096,48.56352 9.4219926,46.182718 7.8182175,43.123333 6.8761192,41.326174 6.0607181,38.460015 6.0552457,36.926438 c -0.00888,-2.489799 1.2702766,-5.96432 4.0506373,-11.002542 1.267894,-2.297519 1.794617,-3.594612 1.556425,-3.832804 -0.19147,-0.19147 -1.410779,0.184073 -3.8365626,1.181649 C 4.1855224,24.76974 1.8027035,24.178442 0.54713743,21.466548 0.01228533,20.311322 0.01001079,19.205895 0.54008508,18.039076 1.2473054,16.482318 2.205002,15.880911 7.1944403,13.860328 14.197438,11.024309 16.251254,9.9476114 18.290207,8.0434543 20.11634,6.3380481 21.442547,4.6007567 22.791214,2.1472707 23.246712,1.3186353 23.775942,0.51073483 23.967282,0.35193627 24.317397,0.06136792 28.344786,2.0992452 41.8512,9.401277 c 2.168204,1.172206 4.097092,2.131283 4.286418,2.131283 0.189323,0 1.422574,-1.016584 2.740556,-2.2590759 2.649123,-2.4973922 3.467515,-2.9935471 4.936893,-2.9930221 1.404188,5.024e-4 2.469169,0.6161498 3.357245,1.9407691 0.674947,1.0067295 0.750747,1.2683688 0.640591,2.2111889 -0.176206,1.508171 -1.038807,2.763798 -2.327159,3.387478 -0.932522,0.451427 -1.280002,0.496657 -2.811896,0.366014 -0.961338,-0.08199 -2.364481,-0.297807 -3.118094,-0.479603 -0.753612,-0.181796 -1.702292,-0.3342 -2.108174,-0.338673 -0.918168,-0.01012 -0.428722,-0.846644 -9.014425,15.406673 -7.599389,14.386152 -8.214718,15.453798 -9.887214,17.15509 -3.249507,3.305456 -8.205211,4.740983 -12.438942,3.60321 z M 28.35061,26.810618 c 1.971554,-0.603608 2.980066,-1.360016 3.559359,-2.669603 1.069086,-2.41685 -0.287083,-4.668291 -2.811976,-4.668291 -1.009262,0 -1.259016,-0.09857 -1.917039,-0.756592 -1.109843,-1.109843 -2.3392,-1.419676 -3.648696,-0.919575 -1.380561,0.527241 -2.016773,1.45523 -2.136976,3.117029 -0.119604,1.653499 0.172994,2.523315 1.567306,4.659186 l 1.120965,1.717148 h 1.350762 c 0.742918,0 2.055251,-0.215686 2.916295,-0.479302 z M 55.863768,12.295156 c 0.889147,-0.889145 1.096902,-2.189333 0.538023,-3.3670833 -0.784822,-1.6538892 -2.96509,-2.0345444 -4.652395,-0.8122663 -1.106731,0.8017119 -3.678031,3.3598346 -3.678031,3.6591826 0,0.665399 3.226777,1.372734 5.777256,1.266421 1.130634,-0.04713 1.425052,-0.156158 2.015147,-0.746254 z"
     id="path17477"
     transform="scale(0.26458334)" />
  <path
     style="fill:#3283f5;fill-opacity:0;stroke-width:0.228368"
     d="M 16.106999,49.532609 C 12.50096,48.56352 9.4219926,46.182718 7.8182175,43.123333 6.8761192,41.326174 6.0607181,38.460015 6.0552457,36.926438 c -0.00888,-2.489799 1.2702766,-5.96432 4.0506373,-11.002542 1.267894,-2.297519 1.794617,-3.594612 1.556425,-3.832804 -0.19147,-0.19147 -1.410779,0.184073 -3.8365626,1.181649 C 4.1855224,24.76974 1.8027035,24.178442 0.54713743,21.466548 0.01228533,20.311322 0.01001079,19.205895 0.54008508,18.039076 1.2473054,16.482318 2.205002,15.880911 7.1944403,13.860328 14.197438,11.024309 16.251254,9.9476114 18.290207,8.0434543 20.11634,6.3380481 21.442547,4.6007567 22.791214,2.1472707 23.246712,1.3186353 23.775942,0.51073483 23.967282,0.35193627 24.317397,0.06136792 28.344786,2.0992452 41.8512,9.401277 c 2.168204,1.172206 4.097092,2.131283 4.286418,2.131283 0.189323,0 1.422574,-1.016584 2.740556,-2.2590759 2.649123,-2.4973922 3.467515,-2.9935471 4.936893,-2.9930221 1.404188,5.024e-4 2.469169,0.6161498 3.357245,1.9407691 0.674947,1.0067295 0.750747,1.2683688 0.640591,2.2111889 -0.176206,1.508171 -1.038807,2.763798 -2.327159,3.387478 -0.932522,0.451427 -1.280002,0.496657 -2.811896,0.366014 -0.961338,-0.08199 -2.364481,-0.297807 -3.118094,-0.479603 -0.753612,-0.181796 -1.702292,-0.3342 -2.108174,-0.338673 -0.918168,-0.01012 -0.428722,-0.846644 -9.014425,15.406673 -7.599389,14.386152 -8.214718,15.453798 -9.887214,17.15509 -3.249507,3.305456 -8.205211,4.740983 -12.438942,3.60321 z M 28.35061,26.810618 c 1.971554,-0.603608 2.980066,-1.360016 3.559359,-2.669603 1.069086,-2.41685 -0.287083,-4.668291 -2.811976,-4.668291 -1.009262,0 -1.259016,-0.09857 -1.917039,-0.756592 -1.109843,-1.109843 -2.3392,-1.419676 -3.648696,-0.919575 -1.380561,0.527241 -2.016773,1.45523 -2.136976,3.117029 -0.119604,1.653499 0.172994,2.523315 1.567306,4.659186 l 1.120965,1.717148 h 1.350762 c 0.742918,0 2.055251,-0.215686 2.916295,-0.479302 z M 55.863768,12.295156 c 0.889147,-0.889145 1.096902,-2.189333 0.538023,-3.3670833 -0.784822,-1.6538892 -2.96509,-2.0345444 -4.652395,-0.8122663 -1.106731,0.8017119 -3.678031,3.3598346 -3.678031,3.6591826 0,0.665399 3.226777,1.372734 5.777256,1.266421 1.130634,-0.04713 1.425052,-0.156158 2.015147,-0.746254 z"
     id="path17516"
     transform="scale(0.26458334)" />
  <path
     style="fill:#3283f5;fill-opacity:0;stroke-width:0.228368"
     d="M 16.106999,49.532609 C 12.50096,48.56352 9.4219926,46.182718 7.8182175,43.123333 6.8761192,41.326174 6.0607181,38.460015 6.0552457,36.926438 c -0.00888,-2.489799 1.2702766,-5.96432 4.0506373,-11.002542 1.267894,-2.297519 1.794617,-3.594612 1.556425,-3.832804 -0.19147,-0.19147 -1.410779,0.184073 -3.8365626,1.181649 C 4.1855224,24.76974 1.8027035,24.178442 0.54713743,21.466548 0.01228533,20.311322 0.01001079,19.205895 0.54008508,18.039076 1.2473054,16.482318 2.205002,15.880911 7.1944403,13.860328 14.197438,11.024309 16.251254,9.9476114 18.290207,8.0434543 20.11634,6.3380481 21.442547,4.6007567 22.791214,2.1472707 23.246712,1.3186353 23.775942,0.51073483 23.967282,0.35193627 24.317397,0.06136792 28.344786,2.0992452 41.8512,9.401277 c 2.168204,1.172206 4.097092,2.131283 4.286418,2.131283 0.189323,0 1.422574,-1.016584 2.740556,-2.2590759 2.649123,-2.4973922 3.467515,-2.9935471 4.936893,-2.9930221 1.404188,5.024e-4 2.469169,0.6161498 3.357245,1.9407691 0.674947,1.0067295 0.750747,1.2683688 0.640591,2.2111889 -0.176206,1.508171 -1.038807,2.763798 -2.327159,3.387478 -0.932522,0.451427 -1.280002,0.496657 -2.811896,0.366014 -0.961338,-0.08199 -2.364481,-0.297807 -3.118094,-0.479603 -0.753612,-0.181796 -1.702292,-0.3342 -2.108174,-0.338673 -0.918168,-0.01012 -0.428722,-0.846644 -9.014425,15.406673 -7.599389,14.386152 -8.214718,15.453798 -9.887214,17.15509 -3.249507,3.305456 -8.205211,4.740983 -12.438942,3.60321 z M 28.35061,26.810618 c 1.971554,-0.603608 2.980066,-1.360016 3.559359,-2.669603 1.069086,-2.41685 -0.287083,-4.668291 -2.811976,-4.668291 -1.009262,0 -1.259016,-0.09857 -1.917039,-0.756592 -1.109843,-1.109843 -2.3392,-1.419676 -3.648696,-0.919575 -1.380561,0.527241 -2.016773,1.45523 -2.136976,3.117029 -0.119604,1.653499 0.172994,2.523315 1.567306,4.659186 l 1.120965,1.717148 h 1.350762 c 0.742918,0 2.055251,-0.215686 2.916295,-0.479302 z M 55.863768,12.295156 c 0.889147,-0.889145 1.096902,-2.189333 0.538023,-3.3670833 -0.784822,-1.6538892 -2.96509,-2.0345444 -4.652395,-0.8122663 -1.106731,0.8017119 -3.678031,3.3598346 -3.678031,3.6591826 0,0.665399 3.226777,1.372734 5.777256,1.266421 1.130634,-0.04713 1.425052,-0.156158 2.015147,-0.746254 z"
     id="path17555"
     transform="scale(0.26458334)" />
</svg>
