<?xml version="1.0" encoding="UTF-8" standalone="no"?>
<svg
   version="1.1"
   width="451.33151"
   height="194.48369"
   style="clip-rule:evenodd;fill-rule:evenodd;image-rendering:optimizeQuality;shape-rendering:geometricPrecision;text-rendering:geometricPrecision"
   id="svg311"
   sodipodi:docname="OpenWeather-Logo0.svg"
   inkscape:version="1.1.1 (3bf5ae0d25, 2021-09-20)"
   xmlns:inkscape="http://www.inkscape.org/namespaces/inkscape"
   xmlns:sodipodi="http://sodipodi.sourceforge.net/DTD/sodipodi-0.dtd"
   xmlns="http://www.w3.org/2000/svg"
   xmlns:svg="http://www.w3.org/2000/svg">
  <defs
     id="defs315" />
  <sodipodi:namedview
     id="namedview313"
     pagecolor="#ffffff"
     bordercolor="#666666"
     borderopacity="1.0"
     inkscape:pageshadow="2"
     inkscape:pageopacity="0.0"
     inkscape:pagecheckerboard="0"
     showgrid="false"
     inkscape:zoom="2.1647059"
     inkscape:cx="318.05707"
     inkscape:cy="169.53804"
     inkscape:window-width="1920"
     inkscape:window-height="974"
     inkscape:window-x="-11"
     inkscape:window-y="-11"
     inkscape:window-maximized="1"
     inkscape:current-layer="svg311" />
  <g
     id="g169"
     transform="translate(-72.527175,-66.059784)">
    <path
       style="opacity:1"
       fill="#e96d4a"
       d="m 229.5,135.5 c -0.951,1.419 -1.284,3.085 -1,5 5,0 10,0 15,0 4.896,2.12 5.229,4.953 1,8.5 -17.333,0.333 -34.667,0.667 -52,1 -2.35,2.373 -2.517,4.873 -0.5,7.5 2.405,0.774 4.905,1.274 7.5,1.5 2.811,3.294 2.478,6.294 -1,9 -3.333,0.333 -6.667,0.667 -10,1 -1.513,2.916 -1.18,5.582 1,8 11.667,0.333 23.333,0.667 35,1 2.667,2.667 2.667,5.333 0,8 -28.667,0.667 -57.333,0.667 -86,0 -2.667,-2.667 -2.667,-5.333 0,-8 8,-0.333 16,-0.667 24,-1 1.944,-2.153 2.444,-4.653 1.5,-7.5 -11.424,-0.822 -22.924,-1.322 -34.5,-1.5 -4,-3 -4,-6 0,-9 7.465,0.241 9.465,-2.759 6,-9 -7.333,-0.333 -14.667,-0.667 -22,-1 -4.71,-6.164 -3.043,-8.997 5,-8.5 -2.178,-32.989 12.488,-54.4886 44,-64.5 33.861,-3.1642 56.028,11.3358 66.5,43.5 0.499,5.323 0.666,10.656 0.5,16 z"
       id="path167" />
  </g>
  <g
     id="g173"
     transform="translate(-72.527175,-66.059784)">
    <path
       style="opacity:1"
       fill="#f2a793"
       d="m 229.5,135.5 c 0,1.333 0,2.667 0,4 4.863,-0.319 9.53,0.014 14,1 -5,0 -10,0 -15,0 -0.284,-1.915 0.049,-3.581 1,-5 z"
       id="path171" />
  </g>
  <g
     id="g177"
     transform="translate(-72.527175,-66.059784)">
    <path
       style="opacity:1"
       fill="#ea6a46"
       d="m 211.5,158.5 c 4.346,-0.166 8.679,0.001 13,0.5 3.924,2.818 3.924,5.818 0,9 -4.333,0.667 -8.667,0.667 -13,0 -3.989,-3.342 -3.989,-6.509 0,-9.5 z"
       id="path175" />
  </g>
  <g
     id="g181"
     transform="translate(-72.527175,-66.059784)">
    <path
       style="opacity:1"
       fill="#eb6c49"
       d="m 237.5,158.5 c 4.679,-0.166 9.345,0.001 14,0.5 4,3 4,6 0,9 -4.667,0.667 -9.333,0.667 -14,0 -2.612,-3.164 -2.612,-6.331 0,-9.5 z"
       id="path179" />
  </g>
  <g
     id="g185"
     transform="translate(-72.527175,-66.059784)">
    <path
       style="opacity:1"
       fill="#49494b"
       d="m 99.5,194.5 c 11.751,-1.379 19.917,3.287 24.5,14 1.093,9.158 0.426,18.158 -2,27 -2.292,4.288 -5.792,7.122 -10.5,8.5 -13.1114,3.529 -21.9447,-0.971 -26.5,-13.5 -0.9009,-8.079 -0.5675,-16.079 1,-24 2.8332,-6.007 7.3332,-10.007 13.5,-12 z"
       id="path183" />
  </g>
  <g
     id="g189"
     transform="translate(-72.527175,-66.059784)">
    <path
       style="opacity:1"
       fill="#cbcbcd"
       d="m 422.5,195.5 c 0.667,6 1.333,12 2,18 -0.283,0.789 -0.783,1.456 -1.5,2 -0.5,-6.658 -0.666,-13.325 -0.5,-20 z"
       id="path187" />
  </g>
  <g
     id="g193"
     transform="translate(-72.527175,-66.059784)">
    <path
       style="opacity:1"
       fill="#4a4a4c"
       d="m 269.5,196.5 c 5.095,-0.279 10.095,0.055 15,1 2.01,12.395 4.344,24.728 7,37 2.373,-12.944 4.373,-25.944 6,-39 3,0 6,0 9,0 -2.334,16.007 -4.668,32.007 -7,48 -5,0 -10,0 -15,0 -2.023,-13.092 -4.523,-26.092 -7.5,-39 -3.461,12.808 -5.961,25.808 -7.5,39 -5.475,0.581 -10.642,-0.086 -15.5,-2 -2.174,-15.07 -4.674,-30.07 -7.5,-45 3.268,-0.987 6.602,-1.32 10,-1 1.176,13.086 3.009,26.086 5.5,39 2.828,-12.641 5.328,-25.307 7.5,-38 z"
       id="path191" />
  </g>
  <g
     id="g197"
     transform="translate(-72.527175,-66.059784)">
    <path
       style="opacity:1"
       fill="#747476"
       d="m 269.5,196.5 c 2.31,-0.664 4.81,-0.997 7.5,-1 2.929,0.025 5.429,0.691 7.5,2 -4.905,-0.945 -9.905,-1.279 -15,-1 z"
       id="path195" />
  </g>
  <g
     id="g201"
     transform="translate(-72.527175,-66.059784)">
    <path
       style="opacity:1"
       fill="#464648"
       d="m 422.5,195.5 c -0.166,6.675 0,13.342 0.5,20 0.717,-0.544 1.217,-1.211 1.5,-2 2.135,-3.104 5.135,-4.437 9,-4 5.333,-0.391 9.5,1.609 12.5,6 1.445,9.226 1.945,18.56 1.5,28 -2.667,0 -5.333,0 -8,0 0.325,-7.519 -0.008,-14.852 -1,-22 -4.35,-6.164 -9.183,-6.497 -14.5,-1 -1.432,7.554 -1.932,15.221 -1.5,23 -2.667,0 -5.333,0 -8,0 0,-16 0,-32 0,-48 2.667,0 5.333,0 8,0 z"
       id="path199" />
  </g>
  <g
     id="g205"
     transform="translate(-72.527175,-66.059784)">
    <path
       style="opacity:1"
       fill="#464548"
       d="m 398.5,199.5 c 0,3.667 0,7.333 0,11 3,0 6,0 9,0 0,2 0,4 0,6 -3,0 -6,0 -9,0 -0.323,6.522 0.01,12.855 1,19 2.107,0.968 4.441,1.302 7,1 0,2.333 0,4.667 0,7 -4.346,0.166 -8.679,-0.001 -13,-0.5 -1.21,-1.039 -2.21,-2.206 -3,-3.5 0,-7.667 0,-15.333 0,-23 -3,0 -6,0 -9,0 0,-2.333 0,-4.667 0,-7 3,0 6,0 9,0 0,-3.333 0,-6.667 0,-10 2.667,0 5.333,0 8,0 z"
       id="path203" />
  </g>
  <g
     id="g209"
     transform="translate(-72.527175,-66.059784)">
    <path
       style="opacity:1"
       fill="#f8f8f8"
       d="m 101.5,202.5 c 6.457,-0.525 10.957,2.142 13.5,8 0.667,6 0.667,12 0,18 -2.483,7.579 -7.65,10.079 -15.5,7.5 -2.8807,-1.251 -4.714,-3.417 -5.5,-6.5 -0.6667,-6 -0.6667,-12 0,-18 0.9227,-4.414 3.4227,-7.414 7.5,-9 z"
       id="path207" />
  </g>
  <g
     id="g213"
     transform="translate(-72.527175,-66.059784)">
    <path
       style="opacity:1"
       fill="#939394"
       d="m 130.5,210.5 c 2.787,-0.977 5.787,-1.31 9,-1 -0.268,1.599 0.066,2.932 1,4 -0.06,0.543 -0.393,0.876 -1,1 -0.929,-1.189 -1.262,-2.522 -1,-4 -2.667,0 -5.333,0 -8,0 z"
       id="path211" />
  </g>
  <g
     id="g217"
     transform="translate(-72.527175,-66.059784)">
    <path
       style="opacity:1"
       fill="#49494b"
       d="m 341.5,221.5 c 0,2.333 0,4.667 0,7 -8.184,-0.326 -16.184,0.008 -24,1 1.849,7.755 6.516,9.922 14,6.5 1.118,-1.074 2.118,-2.24 3,-3.5 2.339,1.343 4.672,2.676 7,4 -5.476,7.586 -12.809,10.086 -22,7.5 -9.312,-5.131 -12.812,-12.964 -10.5,-23.5 5.478,-11.271 13.978,-14.437 25.5,-9.5 3.801,2.614 6.134,6.114 7,10.5 z"
       id="path215" />
  </g>
  <g
     id="g221"
     transform="translate(-72.527175,-66.059784)">
    <path
       style="opacity:1"
       fill="#49494b"
       d="m 378.5,243.5 c -2.667,0 -5.333,0 -8,0 0.268,-1.599 -0.066,-2.932 -1,-4 -4.593,4.828 -10.259,6.328 -17,4.5 -9.256,-6.417 -9.256,-12.75 0,-19 5.572,-1.351 11.238,-1.851 17,-1.5 -0.089,-6.563 -3.422,-9.063 -10,-7.5 -2.511,1.848 -5.011,3.681 -7.5,5.5 -1.901,-1.036 -3.735,-2.202 -5.5,-3.5 7.181,-10.023 16.181,-12.023 27,-6 1.878,1.543 3.378,3.376 4.5,5.5 0.5,8.66 0.666,17.327 0.5,26 z"
       id="path219" />
  </g>
  <g
     id="g225"
     transform="translate(-72.527175,-66.059784)">
    <path
       style="opacity:1"
       fill="#939395"
       d="m 398.5,199.5 c 0.979,3.125 1.313,6.458 1,10 3,0 6,0 9,0 0,2.667 0,5.333 0,8 -3,0 -6,0 -9,0 0,6 0,12 0,18 -0.99,-6.145 -1.323,-12.478 -1,-19 3,0 6,0 9,0 0,-2 0,-4 0,-6 -3,0 -6,0 -9,0 0,-3.667 0,-7.333 0,-11 z"
       id="path223" />
  </g>
  <g
     id="g229"
     transform="translate(-72.527175,-66.059784)">
    <path
       style="opacity:1"
       fill="#49494b"
       d="m 130.5,210.5 c 2.667,0 5.333,0 8,0 -0.262,1.478 0.071,2.811 1,4 0.607,-0.124 0.94,-0.457 1,-1 7.938,-6.947 15.438,-6.28 22.5,2 6.081,10.901 4.248,20.068 -5.5,27.5 -6.869,2.854 -12.869,1.687 -18,-3.5 -0.996,5.963 -1.329,11.963 -1,18 -2.667,0 -5.333,0 -8,0 0,-15.667 0,-31.333 0,-47 z"
       id="path227" />
  </g>
  <g
     id="g233"
     transform="translate(-72.527175,-66.059784)">
    <path
       style="opacity:1"
       fill="#49494b"
       d="m 203.5,228.5 c -8.333,0 -16.667,0 -25,0 -0.237,1.291 0.096,2.291 1,3 1.721,5.527 5.388,7.36 11,5.5 2.124,-1.122 3.957,-2.622 5.5,-4.5 2.25,1.208 4.417,2.541 6.5,4 -3.385,5.528 -8.385,8.194 -15,8 -8.44,0.063 -13.94,-3.937 -16.5,-12 -2.699,-16.296 4.135,-24.129 20.5,-23.5 8.722,3.562 12.722,10.062 12,19.5 z"
       id="path231" />
  </g>
  <g
     id="g237"
     transform="translate(-72.527175,-66.059784)">
    <path
       style="opacity:1"
       fill="#464648"
       d="m 242.5,243.5 c -2.667,0 -5.333,0 -8,0 0.325,-7.187 -0.009,-14.187 -1,-21 -3.84,-7.065 -8.673,-7.731 -14.5,-2 -1.432,7.554 -1.932,15.221 -1.5,23 -2.667,0 -5.333,0 -8,0 0,-11 0,-22 0,-33 2.667,0 5.333,0 8,0 -0.16,1.699 0.006,3.366 0.5,5 4.787,-6.22 10.954,-7.72 18.5,-4.5 2.606,1.938 4.439,4.438 5.5,7.5 0.5,8.327 0.666,16.66 0.5,25 z"
       id="path235" />
  </g>
  <g
     id="g241"
     transform="translate(-72.527175,-66.059784)">
    <path
       style="opacity:1"
       fill="#4a4a4b"
       d="m 486.5,228.5 c -8.333,0 -16.667,0 -25,0 -0.237,1.291 0.096,2.291 1,3 1.721,5.527 5.388,7.36 11,5.5 2.124,-1.122 3.957,-2.622 5.5,-4.5 2.25,1.208 4.417,2.541 6.5,4 -3.385,5.528 -8.385,8.194 -15,8 -13.459,-1.647 -19.293,-9.314 -17.5,-23 5.764,-12.922 14.931,-16.088 27.5,-9.5 5.226,4.292 7.226,9.792 6,16.5 z"
       id="path239" />
  </g>
  <g
     id="g245"
     transform="translate(-72.527175,-66.059784)">
    <path
       style="opacity:1"
       fill="#98989a"
       d="m 217.5,210.5 c -2.667,0 -5.333,0 -8,0 0,11 0,22 0,33 -0.995,-11.154 -1.328,-22.488 -1,-34 3.213,-0.31 6.213,0.023 9,1 z"
       id="path243" />
  </g>
  <g
     id="g249"
     transform="translate(-72.527175,-66.059784)">
    <path
       style="opacity:1"
       fill="#454547"
       d="m 500.5,210.5 c -0.157,1.373 0.01,2.707 0.5,4 1.371,-1.541 2.871,-2.875 4.5,-4 2.333,0 4.667,0 7,0 0,2 0,4 0,6 -2.559,-0.302 -4.893,0.032 -7,1 -2.252,0.416 -3.752,1.749 -4.5,4 -0.5,7.326 -0.666,14.659 -0.5,22 -2.667,0 -5.333,0 -8,0 0,-11 0,-22 0,-33 2.667,0 5.333,0 8,0 z"
       id="path247" />
  </g>
  <g
     id="g253"
     transform="translate(-72.527175,-66.059784)">
    <path
       style="opacity:1"
       fill="#959596"
       d="m 500.5,210.5 c -2.667,0 -5.333,0 -8,0 0,11 0,22 0,33 2.667,0 5.333,0 8,0 -2.787,0.977 -5.787,1.31 -9,1 0,-11.667 0,-23.333 0,-35 3.213,-0.31 6.213,0.023 9,1 z"
       id="path251" />
  </g>
  <g
     id="g257"
     transform="translate(-72.527175,-66.059784)">
    <path
       style="opacity:1"
       fill="#737375"
       d="m 505.5,210.5 c 2.448,-0.973 5.115,-1.306 8,-1 0,2.667 0,5.333 0,8 -2.667,0 -5.333,0 -8,0 2.107,-0.968 4.441,-1.302 7,-1 0,-2 0,-4 0,-6 -2.333,0 -4.667,0 -7,0 z"
       id="path255" />
  </g>
  <g
     id="g261"
     transform="translate(-72.527175,-66.059784)">
    <path
       style="opacity:1"
       fill="#fafafa"
       d="m 144.5,216.5 c 11.74,0.123 15.574,5.79 11.5,17 -3.681,2.86 -7.848,3.693 -12.5,2.5 -3.805,-4.091 -4.972,-8.924 -3.5,-14.5 1.366,-1.862 2.866,-3.528 4.5,-5 z"
       id="path259" />
  </g>
  <g
     id="g265"
     transform="translate(-72.527175,-66.059784)">
    <path
       style="opacity:1"
       fill="#f4f4f4"
       d="m 183.5,216.5 c 6.281,-1.377 9.948,0.957 11,7 -5,0 -10,0 -15,0 -0.313,-3.337 1.02,-5.671 4,-7 z"
       id="path263" />
  </g>
  <g
     id="g269"
     transform="translate(-72.527175,-66.059784)">
    <path
       style="opacity:1"
       fill="#f4f4f4"
       d="m 321.5,216.5 c 6.569,-1.724 10.569,0.609 12,7 -5.333,0 -10.667,0 -16,0 0.461,-2.803 1.795,-5.137 4,-7 z"
       id="path267" />
  </g>
  <g
     id="g273"
     transform="translate(-72.527175,-66.059784)">
    <path
       style="opacity:1"
       fill="#bcbcbe"
       d="m 381.5,216.5 c 3,0 6,0 9,0 0,7.667 0,15.333 0,23 -0.992,-7.148 -1.325,-14.481 -1,-22 -2.885,0.306 -5.552,-0.027 -8,-1 z"
       id="path271" />
  </g>
  <g
     id="g277"
     transform="translate(-72.527175,-66.059784)">
    <path
       style="opacity:1"
       fill="#f3f3f3"
       d="m 465.5,216.5 c 3.478,-0.316 6.812,0.184 10,1.5 1.361,1.584 2.028,3.418 2,5.5 -5,0 -10,0 -15,0 -0.35,-2.953 0.65,-5.287 3,-7 z"
       id="path275" />
  </g>
  <g
     id="g281"
     transform="translate(-72.527175,-66.059784)">
    <path
       style="opacity:1"
       fill="#969698"
       d="m 233.5,222.5 c 0.991,6.813 1.325,13.813 1,21 2.667,0 5.333,0 8,0 -2.787,0.977 -5.787,1.31 -9,1 0,-7.333 0,-14.667 0,-22 z"
       id="path279" />
  </g>
  <g
     id="g285"
     transform="translate(-72.527175,-66.059784)">
    <path
       style="opacity:1"
       fill="#969696"
       d="m 438.5,221.5 c 0.992,7.148 1.325,14.481 1,22 2.667,0 5.333,0 8,0 -2.787,0.977 -5.787,1.31 -9,1 0,-7.667 0,-15.333 0,-23 z"
       id="path283" />
  </g>
  <g
     id="g289"
     transform="translate(-72.527175,-66.059784)">
    <path
       style="opacity:1"
       fill="#7d7d7e"
       d="m 203.5,228.5 c -8.219,0.346 -16.219,1.346 -24,3 -0.904,-0.709 -1.237,-1.709 -1,-3 8.333,0 16.667,0 25,0 z"
       id="path287" />
  </g>
  <g
     id="g293"
     transform="translate(-72.527175,-66.059784)">
    <path
       style="opacity:1"
       fill="#7e7e80"
       d="m 341.5,221.5 c 0.973,2.448 1.306,5.115 1,8 -8.333,0 -16.667,0 -25,0 7.816,-0.992 15.816,-1.326 24,-1 0,-2.333 0,-4.667 0,-7 z"
       id="path291" />
  </g>
  <g
     id="g297"
     transform="translate(-72.527175,-66.059784)">
    <path
       style="opacity:1"
       fill="#8c8c8e"
       d="m 362.5,229.5 c 2.448,-0.973 5.115,-1.306 8,-1 0.237,1.291 -0.096,2.291 -1,3 -1.779,-1.844 -4.112,-2.51 -7,-2 z"
       id="path295" />
  </g>
  <g
     id="g301"
     transform="translate(-72.527175,-66.059784)">
    <path
       style="opacity:1"
       fill="#7f7f80"
       d="m 486.5,228.5 c -8.219,0.346 -16.219,1.346 -24,3 -0.904,-0.709 -1.237,-1.709 -1,-3 8.333,0 16.667,0 25,0 z"
       id="path299" />
  </g>
  <g
     id="g305"
     transform="translate(-72.527175,-66.059784)">
    <path
       style="opacity:1"
       fill="#f6f6f6"
       d="m 362.5,229.5 c 2.888,-0.51 5.221,0.156 7,2 -0.359,1.871 -1.359,3.371 -3,4.5 -3.238,1.368 -6.572,1.701 -10,1 -2.692,-2.632 -2.359,-4.966 1,-7 1.634,-0.494 3.301,-0.66 5,-0.5 z"
       id="path303" />
  </g>
  <g
     id="g309"
     transform="translate(-72.527175,-66.059784)">
    <path
       style="opacity:1"
       fill="#a6a6a7"
       d="m 369.5,239.5 c 0.934,1.068 1.268,2.401 1,4 2.667,0 5.333,0 8,0 -2.787,0.977 -5.787,1.31 -9,1 0,-1.667 0,-3.333 0,-5 z"
       id="path307" />
  </g>
  <g
     inkscape:groupmode="layer"
     id="layer2"
     inkscape:label="Layer 2"
     transform="translate(1.3858676,-0.46195784)">
    <rect
       style="fill:none;fill-rule:evenodd"
       id="rect449"
       width="478.125"
       height="206.95653"
       x="72.527176"
       y="66.059784" />
    <rect
       style="fill:none"
       id="rect477"
       width="451.33154"
       height="194.48367"
       x="72.527176"
       y="66.059784"
       ry="17.554399" />
  </g>
  <g
     inkscape:groupmode="layer"
     id="layer1"
     inkscape:label="Layer 1"
     transform="translate(1.3858676,-0.46195784)" />
  <rect
     style="fill:none"
     id="rect475"
     width="451.33151"
     height="194.48369"
     x="0"
     y="0"
     ry="12.9348" />
</svg>
